<?xml version="1.0" standalone="no"?>
<!DOCTYPE svg PUBLIC "-//W3C//DTD SVG 20010904//EN"
 "http://www.w3.org/TR/2001/REC-SVG-20010904/DTD/svg10.dtd">
<svg version="1.0" xmlns="http://www.w3.org/2000/svg"
 width="335.000000pt" height="335.000000pt" viewBox="0 0 335.000000 335.000000"
 preserveAspectRatio="xMidYMid meet">
<metadata>
Created by potrace 1.11, written by Peter Selinger 2001-2013
</metadata>
<g transform="translate(0.000000,335.000000) scale(0.100000,-0.100000)"
fill="#000000" stroke="none">
<path d="M0 2416 c0 -401 2 -455 16 -467 9 -7 219 -88 467 -181 248 -93 457
-174 464 -181 6 -6 19 -55 27 -107 71 -417 357 -769 750 -921 297 -114 651
-101 941 37 162 76 337 219 446 364 65 86 162 283 193 391 81 285 56 572 -74
837 -66 137 -117 210 -214 310 -241 249 -527 372 -867 372 l-119 0 0 -115 0
-115 -175 0 -175 0 0 115 0 115 -840 0 -840 0 0 -454z m1679 -814 c33 -185
159 -331 333 -383 56 -17 88 -21 167 -17 92 3 105 6 184 46 151 75 255 224
269 387 l3 30 119 3 118 3 -6 -58 c-35 -293 -216 -519 -494 -616 -121 -42
-272 -49 -385 -18 -209 57 -383 193 -468 366 -43 89 -79 215 -79 282 l0 43
113 0 114 0 12 -68z"/>
</g>
</svg>
